<svg width="280.5675048828125px" height="73.4224853515625px" xmlns="http://www.w3.org/2000/svg" viewBox="109.71624755859375 38.28875732421875 280.5675048828125 73.4224853515625" style="background: none;" preserveAspectRatio="xMidYMid"><defs><filter id="editing-vintage" x="-100%" y="-100%" width="300%" height="300%"><feConvolveMatrix in="SourceGraphic" result="extrude" order="1,1" divisor="1" kernelMatrix="1"> </feConvolveMatrix><feFlood flood-color="#a5b5bc" result="flood-extrude"></feFlood><feComposite operator="in" in="flood-extrude" in2="extrude" result="extrude-color"></feComposite><feOffset dx="1" dy="1" in="extrude-color" result="extrude-offset"></feOffset><feColorMatrix in="SourceGraphic" result="stroke" type="matrix" values="0 0 0 0 0 0 0 0 0 0 0 0 0 0 0 0 1 0 0 0 "></feColorMatrix><feColorMatrix in="SourceGraphic" result="fill" type="matrix" values="0 0 0 0 0 0 0 0 0 0 0 0 0 0 0 1 0 0 1 0 "></feColorMatrix><feConvolveMatrix in="stroke" result="inner-shadow" order="5,5" divisor="1" kernelMatrix="1 0 0 0 0 0 1 0 0 0 0 0 1 0 0 0 0 0 1 0 0 0 0 0 1 "></feConvolveMatrix><feOffset dx="1" dy="1" in="inner-shadow" result="offset"></feOffset><feComposite operator="in" in="offset" in2="SourceAlpha" result="comp"></feComposite><feFlood flood-color="#fae127" result="flood3"></feFlood><feComposite operator="in" in="flood3" in2="comp" result="comp2"></feComposite><feColorMatrix in="comp2" result="comp3" type="matrix" values="1 0 0 0 0 0 1 0 0 0 0 0 1 0 0 0 0 0 0.5 0 "></feColorMatrix><feFlood flood-color="#eb7f19" result="flood1"></feFlood><feComposite operator="in" in="flood1" in2="fill" result="fill2"></feComposite><feFlood flood-color="#fff" result="flood2"></feFlood><feComposite operator="in" in="flood2" in2="stroke" result="stroke2"></feComposite><feMerge result="obj"><feMergeNode in="extrude-offset"></feMergeNode><feMergeNode in="fill2"></feMergeNode><feMergeNode in="comp3"></feMergeNode></feMerge><feConvolveMatrix in="SourceAlpha" result="shadow" order="1,1" divisor="1" kernelMatrix="1"></feConvolveMatrix><feOffset dx="3" dy="3" in="shadow" result="shadow-offset"></feOffset><feFlood flood-color="#f4edd8" result="flood-shadow"></feFlood><feComposite operator="in" in="flood-shadow" in2="shadow-offset" result="shadow-color"></feComposite><feMerge><feMergeNode in="shadow-color"></feMergeNode><feMergeNode in="obj"></feMergeNode></feMerge></filter></defs><g transform="translate(-1,-1)"><g filter="url(#editing-vintage)"><g transform="translate(154.43000213056803, 88.67000007629395)"><path d="M7.48-3.60L7.48-3.60L7.48-17.72L7.48-17.72Q7.48-17.87 7.46-17.95L7.46-17.95L7.46-17.95Q7.45-18.03 7.38-18.12L7.38-18.12L7.38-18.12Q7.30-18.20 7.15-18.20L7.15-18.20L7.15-18.20Q6.51-18.20 5.28-18.20L5.28-18.20L5.28-18.20Q4.06-18.21 3.53-18.21L3.53-18.21L3.53-18.21Q3.40-17.94 3.12-16.85L3.12-16.85L3.12-16.85Q2.84-15.76 2.56-14.94L2.56-14.94L2.56-14.94Q2.27-14.12 2.04-14.12L2.04-14.12L2.04-14.12Q1.52-14.12 1.11-14.26L1.11-14.26L1.11-14.26Q0.71-14.40 0.50-14.59L0.50-14.59L0.50-14.59Q0.29-14.79 0.18-14.96L0.18-14.96L0.18-14.96Q0.08-15.13 0.08-15.23L0.08-15.23L0.08-15.23Q0.08-15.70 0.59-18.05L0.59-18.05L0.59-18.05Q1.09-20.40 1.29-20.59L1.29-20.59L1.29-20.59Q1.33-20.59 1.37-20.58L1.37-20.58L1.37-20.58Q1.41-20.58 1.45-20.58L1.45-20.58L1.45-20.58Q5.51-20.23 9.06-20.23L9.06-20.23L9.06-20.23Q12.61-20.23 16.67-20.58L16.67-20.58L16.67-20.58Q16.71-20.58 16.75-20.58L16.75-20.58L16.75-20.58Q16.79-20.59 16.83-20.59L16.83-20.59L16.83-20.59Q17.02-20.40 17.53-18.05L17.53-18.05L17.53-18.05Q18.03-15.70 18.03-15.23L18.03-15.23L18.03-15.23Q18.03-15.13 17.93-14.96L17.93-14.96L17.93-14.96Q17.83-14.79 17.62-14.59L17.62-14.59L17.62-14.59Q17.40-14.40 17.00-14.26L17.00-14.26L17.00-14.26Q16.60-14.12 16.08-14.12L16.08-14.12L16.08-14.12Q15.85-14.12 15.56-14.94L15.56-14.94L15.56-14.94Q15.27-15.76 14.99-16.85L14.99-16.85L14.99-16.85Q14.71-17.94 14.59-18.21L14.59-18.21L14.59-18.21Q14.05-18.21 12.83-18.20L12.83-18.20L12.83-18.20Q11.61-18.20 10.96-18.20L10.96-18.20L10.96-18.20Q10.75-18.20 10.69-18.07L10.69-18.07L10.69-18.07Q10.64-17.95 10.64-17.72L10.64-17.72L10.64-3.62L10.64-3.62Q10.64-3.42 10.66-3.30L10.66-3.30L10.66-3.30Q10.68-3.19 10.75-3.04L10.75-3.04L10.75-3.04Q10.83-2.88 11.02-2.81L11.02-2.81L11.02-2.81Q11.21-2.73 11.51-2.73L11.51-2.73L11.51-2.73Q12.14-2.73 12.59-2.57L12.59-2.57L12.59-2.57Q13.04-2.41 13.04-2.08L13.04-2.08L13.04-2.08Q13.04-0.26 12.59 0.15L12.59 0.15L12.59 0.15Q10.54 0 9.08 0L9.08 0L9.08 0Q7.64 0 5.54 0.15L5.54 0.15L5.54 0.15Q5.09-0.26 5.09-2.08L5.09-2.08L5.09-2.08Q5.09-2.41 5.54-2.57L5.54-2.57L5.54-2.57Q5.99-2.73 6.62-2.73L6.62-2.73L6.62-2.73Q7.15-2.73 7.31-2.96L7.31-2.96L7.31-2.96Q7.48-3.19 7.48-3.60ZM35.52-1.86L35.52-1.86L35.52-1.86Q34.52-0.81 33.00-0.22L33.00-0.22L33.00-0.22Q31.47 0.37 29.90 0.37L29.90 0.37L29.90 0.37Q27.95 0.37 26.67-0.67L26.67-0.67L26.67-0.67Q25.40-1.71 25.40-3.68L25.40-3.68L25.40-3.68Q25.40-5.78 27.44-6.85L27.44-6.85L27.44-6.85Q28.97-7.67 32.69-8.27L32.69-8.27L32.69-8.27Q33.39-8.39 34.96-8.63L34.96-8.63L34.96-8.63Q34.96-10.95 34.37-11.83L34.37-11.83L34.37-11.83Q33.78-12.70 32.12-12.70L32.12-12.70L32.12-12.70Q30.90-12.70 29.41-12.15L29.41-12.15L29.41-12.15Q27.92-11.61 27.03-10.64L27.03-10.64L27.03-10.64Q25.92-11.57 25.92-12.46L25.92-12.46L25.92-12.46Q25.92-13.22 26.97-13.82L26.97-13.82L26.97-13.82Q28.03-14.41 29.46-14.69L29.46-14.69L29.46-14.69Q30.88-14.97 32.32-14.97L32.32-14.97L32.32-14.97Q33.67-14.97 34.69-14.64L34.69-14.64L34.69-14.64Q35.71-14.30 36.49-13.54L36.49-13.54L36.49-13.54Q37.27-12.77 37.67-11.43L37.67-11.43L37.67-11.43Q38.08-10.09 38.08-8.18L38.08-8.18L38.08-3.80L38.08-3.80Q38.08-3.24 38.17-2.96L38.17-2.96L38.17-2.96Q38.25-2.68 38.36-2.62L38.36-2.62L38.36-2.62Q38.47-2.56 38.72-2.53L38.72-2.53L38.72-2.53Q39.14-2.49 39.35-2.45L39.35-2.45L39.35-2.45Q39.55-2.42 39.83-2.35L39.83-2.35L39.83-2.35Q40.10-2.28 40.22-2.17L40.22-2.17L40.22-2.17Q40.33-2.06 40.33-1.90L40.33-1.90L40.33-1.90Q40.33-0.29 39.88 0.11L39.88 0.11L39.88 0.11Q39.22 0 38.17 0L38.17 0L38.17 0Q37.21 0 36.39 0.10L36.39 0.10L36.39 0.10Q36.30 0.03 36.16-0.10L36.16-0.10L36.16-0.10Q36.01-0.22 35.77-0.72L35.77-0.72L35.77-0.72Q35.52-1.23 35.52-1.86ZM30.53-2.06L30.53-2.06L30.53-2.06Q31.77-2.06 33.22-2.75L33.22-2.75L33.22-2.75Q34.67-3.45 34.97-4.01L34.97-4.01L34.97-6.43L34.97-6.43Q31.24-5.76 29.93-5.22L29.93-5.22L29.93-5.22Q28.63-4.69 28.63-3.72L28.63-3.72L28.63-3.72Q28.63-2.06 30.53-2.06ZM61.22-11.32L61.22-11.32L61.22-11.32Q61.22-10.51 60.66-9.95L60.66-9.95L60.66-9.95Q60.09-9.39 58.87-9.39L58.87-9.39L58.87-9.39Q58.58-9.39 58.52-9.52L58.52-9.52L58.52-9.52Q58.46-9.65 58.41-10.21L58.41-10.21L58.20-12.17L58.20-12.17Q58.11-12.24 57.93-12.33L57.93-12.33L57.93-12.33Q57.76-12.41 57.17-12.57L57.17-12.57L57.17-12.57Q56.57-12.73 55.92-12.73L55.92-12.73L55.92-12.73Q53.84-12.73 52.56-11.12L52.56-11.12L52.56-11.12Q51.28-9.52 51.28-7.30L51.28-7.30L51.28-7.30Q51.28-4.91 52.53-3.57L52.53-3.57L52.53-3.57Q53.77-2.23 56.12-2.23L56.12-2.23L56.12-2.23Q57.22-2.23 58.51-2.69L58.51-2.69L58.51-2.69Q59.80-3.16 60.62-3.88L60.62-3.88L60.62-3.88Q61.40-2.97 61.40-2.13L61.40-2.13L61.40-2.13Q61.40-1.45 60.59-0.86L60.59-0.86L60.59-0.86Q59.79-0.27 58.52 0.05L58.52 0.05L58.52 0.05Q57.26 0.37 55.89 0.37L55.89 0.37L55.89 0.37Q54.30 0.37 52.90-0.13L52.90-0.13L52.90-0.13Q51.50-0.63 50.42-1.58L50.42-1.58L50.42-1.58Q49.34-2.53 48.71-4.04L48.71-4.04L48.71-4.04Q48.08-5.55 48.08-7.45L48.08-7.45L48.08-7.45Q48.08-9.21 48.75-10.67L48.75-10.67L48.75-10.67Q49.41-12.13 50.50-13.05L50.50-13.05L50.50-13.05Q51.60-13.97 52.96-14.47L52.96-14.47L52.96-14.47Q54.32-14.97 55.75-14.97L55.75-14.97L55.75-14.97Q57.22-14.97 58.30-14.68L58.30-14.68L58.30-14.68Q59.39-14.38 60.01-13.86L60.01-13.86L60.01-13.86Q60.63-13.34 60.93-12.71L60.93-12.71L60.93-12.71Q61.22-12.07 61.22-11.32ZM69.84-3.97L69.84-3.97L69.84-3.97Q69.18-5.47 69.18-7.31L69.18-7.31L69.18-7.31Q69.18-9.16 69.84-10.65L69.84-10.65L69.84-10.65Q70.49-12.14 71.59-13.06L71.59-13.06L71.59-13.06Q72.68-13.99 74.03-14.48L74.03-14.48L74.03-14.48Q75.39-14.97 76.86-14.97L76.86-14.97L76.86-14.97Q78.33-14.97 79.68-14.48L79.68-14.48L79.68-14.48Q81.03-13.99 82.12-13.06L82.12-13.06L82.12-13.06Q83.21-12.14 83.86-10.65L83.86-10.65L83.86-10.65Q84.52-9.16 84.52-7.31L84.52-7.31L84.52-7.31Q84.52-5.47 83.86-3.97L83.86-3.97L83.86-3.97Q83.21-2.47 82.12-1.54L82.12-1.54L82.12-1.54Q81.03-0.62 79.68-0.12L79.68-0.12L79.68-0.12Q78.33 0.37 76.86 0.37L76.86 0.37L76.86 0.37Q75.39 0.37 74.03-0.12L74.03-0.12L74.03-0.12Q72.68-0.62 71.59-1.54L71.59-1.54L71.59-1.54Q70.49-2.47 69.84-3.97ZM73.71-11.24L73.71-11.24L73.71-11.24Q72.38-9.83 72.38-7.31L72.38-7.31L72.38-7.31Q72.38-4.80 73.71-3.38L73.71-3.38L73.71-3.38Q75.03-1.97 76.84-1.97L76.84-1.97L76.84-1.97Q77.70-1.97 78.49-2.31L78.49-2.31L78.49-2.31Q79.28-2.65 79.92-3.30L79.92-3.30L79.92-3.30Q80.55-3.95 80.94-4.99L80.94-4.99L80.94-4.99Q81.32-6.03 81.32-7.31L81.32-7.31L81.32-7.31Q81.32-8.60 80.94-9.64L80.94-9.64L80.94-9.64Q80.55-10.68 79.92-11.32L79.92-11.32L79.92-11.32Q79.28-11.96 78.49-12.30L78.49-12.30L78.49-12.30Q77.70-12.65 76.84-12.65L76.84-12.65L76.84-12.65Q75.03-12.65 73.71-11.24ZM106.86 1.78L106.86 1.78L106.86 1.78Q106.86 2.99 106.45 3.89L106.45 3.89L106.45 3.89Q106.04 4.79 105.37 5.33L105.37 5.33L105.37 5.33Q104.70 5.87 103.67 6.19L103.67 6.19L103.67 6.19Q102.63 6.52 101.56 6.64L101.56 6.64L101.56 6.64Q100.49 6.75 99.09 6.75L99.09 6.75L99.09 6.75Q96.52 6.75 94.71 6.17L94.71 6.17L94.71 6.17Q92.90 5.59 92.90 4.62L92.90 4.62L92.90 4.62Q92.90 2.63 94.02 0.11L94.02 0.11L94.02 0.11Q92.45-0.42 92.45-2.11L92.45-2.11L92.45-2.11Q92.45-3.72 94.45-5.36L94.45-5.36L94.45-5.36Q93.43-6.11 92.92-7.15L92.92-7.15L92.92-7.15Q92.41-8.19 92.41-9.31L92.41-9.31L92.41-9.31Q92.41-10.38 92.89-11.40L92.89-11.40L92.89-11.40Q93.37-12.41 94.20-13.21L94.20-13.21L94.20-13.21Q95.03-14 96.26-14.49L96.26-14.49L96.26-14.49Q97.49-14.97 98.90-14.97L98.90-14.97L98.90-14.97Q100.09-14.97 100.91-14.77L100.91-14.77L100.91-14.77Q101.73-14.56 102.50-14.10L102.50-14.10L102.50-14.10Q102.51-14.11 102.79-14.41L102.79-14.41L102.79-14.41Q103.06-14.71 103.30-14.92L103.30-14.92L103.30-14.92Q103.54-15.12 103.93-15.39L103.93-15.39L103.93-15.39Q104.33-15.67 104.84-15.81L104.84-15.81L104.84-15.81Q105.36-15.96 105.92-15.96L105.92-15.96L105.92-15.96Q106.82-15.96 107.05-15.76L107.05-15.76L107.05-15.76Q107.28-15.56 107.28-14.97L107.28-14.97L107.28-14.74L107.28-14.74Q107.28-14.44 107.28-14.25L107.28-14.25L107.28-14.25Q107.27-14.05 107.20-13.88L107.20-13.88L107.20-13.88Q107.13-13.71 107.08-13.62L107.08-13.62L107.08-13.62Q107.02-13.52 106.85-13.44L106.85-13.44L106.85-13.44Q106.67-13.36 106.52-13.32L106.52-13.32L106.52-13.32Q106.38-13.29 106.03-13.26L106.03-13.26L106.03-13.26Q105.68-13.23 105.40-13.23L105.40-13.23L105.40-13.23Q105.12-13.23 104.58-13.23L104.58-13.23L104.58-13.23Q104.45-13.23 104.17-13.25L104.17-13.25L104.17-13.25Q103.89-13.26 103.74-13.26L103.74-13.26L103.74-13.26Q104.67-12.63 105.22-11.53L105.22-11.53L105.22-11.53Q105.77-10.42 105.77-9.12L105.77-9.12L105.77-9.12Q105.77-6.95 104.02-5.48L104.02-5.48L104.02-5.48Q102.28-4.02 99.22-4.02L99.22-4.02L99.22-4.02Q98.53-4.02 97.89-4.12L97.89-4.12L97.89-4.12Q97.25-4.22 96.71-4.37L96.71-4.37L96.71-4.37Q96.18-4.51 96.17-4.51L96.17-4.51L96.17-4.51Q95.72-3.61 95.72-2.72L95.72-2.72L95.72-2.72Q95.72-2.30 96.33-2.12L96.33-2.12L96.33-2.12Q96.95-1.94 97.93-1.93L97.93-1.93L97.93-1.93Q98.92-1.91 100.10-1.92L100.10-1.92L100.10-1.92Q101.28-1.93 102.47-1.79L102.47-1.79L102.47-1.79Q103.66-1.65 104.64-1.33L104.64-1.33L104.64-1.33Q105.63-1.00 106.24-0.21L106.24-0.21L106.24-0.21Q106.86 0.57 106.86 1.78ZM99.07-6.34L99.07-6.34L99.07-6.34Q100.13-6.34 100.91-6.60L100.91-6.60L100.91-6.60Q101.69-6.85 102.12-7.29L102.12-7.29L102.12-7.29Q102.54-7.74 102.74-8.25L102.74-8.25L102.74-8.25Q102.94-8.76 102.94-9.38L102.94-9.38L102.94-9.38Q102.94-10.73 101.97-11.70L101.97-11.70L101.97-11.70Q101.01-12.67 99.12-12.67L99.12-12.67L99.12-12.67Q97.25-12.67 96.30-11.72L96.30-11.72L96.30-11.72Q95.36-10.77 95.36-9.39L95.36-9.39L95.36-9.39Q95.36-8.11 96.26-7.23L96.26-7.23L96.26-7.23Q97.15-6.34 99.07-6.34ZM100.16 0.59L97.49 0.59L97.49 0.59Q96.02 0.49 95.43 0.34L95.43 0.34L95.43 0.34Q95.43 0.93 95.44 1.22L95.44 1.22L95.44 1.22Q95.44 1.52 95.48 2.00L95.48 2.00L95.48 2.00Q95.51 2.49 95.59 2.75L95.59 2.75L95.59 2.75Q95.66 3.01 95.80 3.30L95.80 3.30L95.80 3.30Q95.94 3.60 96.15 3.75L96.15 3.75L96.15 3.75Q96.37 3.90 96.67 3.95L96.67 3.95L96.67 3.95Q98.40 4.27 99.80 4.27L99.80 4.27L99.80 4.27Q100.95 4.27 101.73 4.11L101.73 4.11L101.73 4.11Q102.50 3.95 102.90 3.65L102.90 3.65L102.90 3.65Q103.30 3.35 103.46 2.99L103.46 2.99L103.46 2.99Q103.62 2.63 103.62 2.12L103.62 2.12L103.62 2.12Q103.62 0.59 100.16 0.59L100.16 0.59ZM125.11-1.86L125.11-1.86L125.11-1.86Q124.11-0.81 122.59-0.22L122.59-0.22L122.59-0.22Q121.06 0.37 119.49 0.37L119.49 0.37L119.49 0.37Q117.54 0.37 116.27-0.67L116.27-0.67L116.27-0.67Q114.99-1.71 114.99-3.68L114.99-3.68L114.99-3.68Q114.99-5.78 117.03-6.85L117.03-6.85L117.03-6.85Q118.56-7.67 122.28-8.27L122.28-8.27L122.28-8.27Q122.98-8.39 124.55-8.63L124.55-8.63L124.55-8.63Q124.55-10.95 123.96-11.83L123.96-11.83L123.96-11.83Q123.38-12.70 121.71-12.70L121.71-12.70L121.71-12.70Q120.49-12.70 119-12.15L119-12.15L119-12.15Q117.51-11.61 116.62-10.64L116.62-10.64L116.62-10.64Q115.51-11.57 115.51-12.46L115.51-12.46L115.51-12.46Q115.51-13.22 116.57-13.82L116.57-13.82L116.57-13.82Q117.62-14.41 119.05-14.69L119.05-14.69L119.05-14.69Q120.48-14.97 121.91-14.97L121.91-14.97L121.91-14.97Q123.27-14.97 124.28-14.64L124.28-14.64L124.28-14.64Q125.30-14.30 126.08-13.54L126.08-13.54L126.08-13.54Q126.86-12.77 127.26-11.43L127.26-11.43L127.26-11.43Q127.67-10.09 127.67-8.18L127.67-8.18L127.67-3.80L127.67-3.80Q127.67-3.24 127.76-2.96L127.76-2.96L127.76-2.96Q127.85-2.68 127.96-2.62L127.96-2.62L127.96-2.62Q128.06-2.56 128.31-2.53L128.31-2.53L128.31-2.53Q128.73-2.49 128.94-2.45L128.94-2.45L128.94-2.45Q129.14-2.42 129.42-2.35L129.42-2.35L129.42-2.35Q129.69-2.28 129.81-2.17L129.81-2.17L129.81-2.17Q129.92-2.06 129.92-1.90L129.92-1.90L129.92-1.90Q129.92-0.29 129.47 0.11L129.47 0.11L129.47 0.11Q128.82 0 127.76 0L127.76 0L127.76 0Q126.81 0 125.99 0.10L125.99 0.10L125.99 0.10Q125.89 0.03 125.75-0.10L125.75-0.10L125.75-0.10Q125.60-0.22 125.36-0.72L125.36-0.72L125.36-0.72Q125.11-1.23 125.11-1.86ZM120.12-2.06L120.12-2.06L120.12-2.06Q121.37-2.06 122.81-2.75L122.81-2.75L122.81-2.75Q124.26-3.45 124.56-4.01L124.56-4.01L124.56-6.43L124.56-6.43Q120.83-5.76 119.53-5.22L119.53-5.22L119.53-5.22Q118.22-4.69 118.22-3.72L118.22-3.72L118.22-3.72Q118.22-2.06 120.12-2.06ZM147.33-2.73L147.33-2.73L147.33-2.73Q147.74-1.96 147.74-1.27L147.74-1.27L147.74-1.27Q147.74-0.89 147.40-0.61L147.40-0.61L147.40-0.61Q147.07-0.33 146.54-0.18L146.54-0.18L146.54-0.18Q146.00-0.03 145.47 0.04L145.47 0.04L145.47 0.04Q144.94 0.11 144.43 0.11L144.43 0.11L144.43 0.11Q143.66 0.11 143.01-0.11L143.01-0.11L143.01-0.11Q142.35-0.33 141.76-0.83L141.76-0.83L141.76-0.83Q141.16-1.33 140.82-2.28L140.82-2.28L140.82-2.28Q140.48-3.23 140.48-4.54L140.48-4.54L140.48-12.47L139.89-12.47L139.89-12.47Q138.28-12.47 138.13-12.46L138.13-12.46L138.13-12.46Q137.68-12.62 137.68-13.51L137.68-13.51L137.68-13.51Q137.68-14.59 138.36-14.59L138.36-14.59L140.48-14.59L140.48-14.59Q140.53-15.03 140.58-15.73L140.58-15.73L140.58-15.73Q140.63-16.43 140.67-16.84L140.67-16.84L140.67-16.84Q140.71-17.25 140.80-17.81L140.80-17.81L140.80-17.81Q140.89-18.38 141.05-18.70L141.05-18.70L141.05-18.70Q141.20-19.02 141.45-19.33L141.45-19.33L141.45-19.33Q141.70-19.65 142.08-19.79L142.08-19.79L142.08-19.79Q142.47-19.93 143.01-19.93L143.01-19.93L143.01-19.93Q143.38-19.93 143.58-19.81L143.58-19.81L143.58-14.59L145.40-14.59L145.40-14.59Q147.03-14.59 147.11-14.66L147.11-14.66L147.11-14.66Q147.79-14.66 147.79-13.48L147.79-13.48L147.79-13.48Q147.79-12.59 147.34-12.43L147.34-12.43L147.34-12.43Q146.89-12.47 145.58-12.47L145.58-12.47L143.58-12.47L143.58-4.62L143.58-4.62Q143.58-2.35 145.06-2.35L145.06-2.35L145.06-2.35Q146.02-2.35 147.33-2.73ZM156.35-3.97L156.35-3.97L156.35-3.97Q155.70-5.47 155.70-7.31L155.70-7.31L155.70-7.31Q155.70-9.16 156.35-10.65L156.35-10.65L156.35-10.65Q157.01-12.14 158.10-13.06L158.10-13.06L158.10-13.06Q159.20-13.99 160.55-14.48L160.55-14.48L160.55-14.48Q161.90-14.97 163.38-14.97L163.38-14.97L163.38-14.97Q164.84-14.97 166.20-14.48L166.20-14.48L166.20-14.48Q167.55-13.99 168.64-13.06L168.64-13.06L168.64-13.06Q169.72-12.14 170.38-10.65L170.38-10.65L170.38-10.65Q171.04-9.16 171.04-7.31L171.04-7.31L171.04-7.31Q171.04-5.47 170.38-3.97L170.38-3.97L170.38-3.97Q169.72-2.47 168.64-1.54L168.64-1.54L168.64-1.54Q167.55-0.62 166.20-0.12L166.20-0.12L166.20-0.12Q164.84 0.37 163.38 0.37L163.38 0.37L163.38 0.37Q161.90 0.37 160.55-0.12L160.55-0.12L160.55-0.12Q159.20-0.62 158.10-1.54L158.10-1.54L158.10-1.54Q157.01-2.47 156.35-3.97ZM160.22-11.24L160.22-11.24L160.22-11.24Q158.89-9.83 158.89-7.31L158.89-7.31L158.89-7.31Q158.89-4.80 160.22-3.38L160.22-3.38L160.22-3.38Q161.55-1.97 163.35-1.97L163.35-1.97L163.35-1.97Q164.21-1.97 165.01-2.31L165.01-2.31L165.01-2.31Q165.80-2.65 166.43-3.30L166.43-3.30L166.43-3.30Q167.07-3.95 167.45-4.99L167.45-4.99L167.45-4.99Q167.84-6.03 167.84-7.31L167.84-7.31L167.84-7.31Q167.84-8.60 167.45-9.64L167.45-9.64L167.45-9.64Q167.07-10.68 166.43-11.32L166.43-11.32L166.43-11.32Q165.80-11.96 165.01-12.30L165.01-12.30L165.01-12.30Q164.21-12.65 163.35-12.65L163.35-12.65L163.35-12.65Q161.55-12.65 160.22-11.24ZM183.90-13.40L183.90-13.40L183.90-12.51L183.90-12.51Q184.52-13.49 185.73-14.23L185.73-14.23L185.73-14.23Q186.95-14.97 188.06-14.97L188.06-14.97L188.06-14.97Q188.78-14.97 189.44-14.73L189.44-14.73L189.44-14.73Q190.09-14.49 190.58-13.88L190.58-13.88L190.58-13.88Q191.06-13.26 191.06-12.37L191.06-12.37L191.06-12.37Q191.06-9.94 188.48-9.94L188.48-9.94L188.48-9.94Q188.43-9.94 188.37-9.95L188.37-9.95L188.37-9.95Q188.32-9.97 188.28-9.99L188.28-9.99L188.28-9.99Q188.25-10.02 188.22-10.05L188.22-10.05L188.22-10.05Q188.19-10.08 188.17-10.13L188.17-10.13L188.17-10.13Q188.15-10.19 188.14-10.23L188.14-10.23L188.14-10.23Q188.13-10.27 188.11-10.36L188.11-10.36L188.11-10.36Q188.10-10.45 188.09-10.50L188.09-10.50L188.09-10.50Q188.08-10.55 188.08-10.66L188.08-10.66L188.08-10.66Q188.07-10.76 188.06-10.83L188.06-10.83L187.89-12.25L187.89-12.25Q187.52-12.43 187.09-12.43L187.09-12.43L187.09-12.43Q186.29-12.43 185.49-11.85L185.49-11.85L185.49-11.85Q184.69-11.27 184.31-10.50L184.31-10.50L184.31-3.58L184.31-3.58Q184.31-3.38 184.33-3.26L184.33-3.26L184.33-3.26Q184.35-3.14 184.43-2.99L184.43-2.99L184.43-2.99Q184.50-2.84 184.69-2.77L184.69-2.77L184.69-2.77Q184.88-2.69 185.19-2.69L185.19-2.69L185.19-2.69Q185.71-2.69 186.07-2.53L186.07-2.53L186.07-2.53Q186.44-2.37 186.44-2.04L186.44-2.04L186.44-2.04Q186.44-1.38 186.22-0.74L186.22-0.74L186.22-0.74Q186.01-0.10 185.58 0.11L185.58 0.11L185.58 0.11Q184.63 0 182.78 0L182.78 0L182.78 0Q180.93 0 179.95 0.11L179.95 0.11L179.95 0.11Q179.50-0.10 179.29-0.73L179.29-0.73L179.29-0.73Q179.09-1.37 179.09-2.04L179.09-2.04L179.09-2.04Q179.09-2.37 179.46-2.53L179.46-2.53L179.46-2.53Q179.83-2.69 180.35-2.69L180.35-2.69L180.35-2.69Q180.88-2.69 181.04-2.92L181.04-2.92L181.04-2.92Q181.21-3.14 181.21-3.55L181.21-3.55L181.21-10.75L181.21-10.75Q181.21-11.47 180.79-11.77L180.79-11.77L180.79-11.77Q180.37-12.07 179.18-12.13L179.18-12.13L179.18-12.13Q179.01-12.17 178.96-12.30L178.96-12.30L178.96-12.30Q178.91-12.44 178.91-12.89L178.91-12.89L178.91-12.89Q178.91-13.59 179.06-14.12L179.06-14.12L179.06-14.12Q179.21-14.66 179.36-14.74L179.36-14.74L179.36-14.74Q180.33-14.59 181.26-14.59L181.26-14.59L181.26-14.59Q181.84-14.59 182.47-14.66L182.47-14.66L182.47-14.66Q183.11-14.74 183.15-14.74L183.15-14.74L183.15-14.74Q183.63-14.74 183.76-14.50L183.76-14.50L183.76-14.50Q183.90-14.26 183.90-13.40Z" fill="#f00" stroke="#0f0" stroke-width="1.8"></path></g></g><g><g transform="translate(154.43000213056803, 88.67000007629395)"><path d="M7.48-3.60L7.48-3.60L7.48-17.72L7.48-17.72Q7.48-17.87 7.46-17.95L7.46-17.95L7.46-17.95Q7.45-18.03 7.38-18.12L7.38-18.12L7.38-18.12Q7.30-18.20 7.15-18.20L7.15-18.20L7.15-18.20Q6.51-18.20 5.28-18.20L5.28-18.20L5.28-18.20Q4.06-18.21 3.53-18.21L3.53-18.21L3.53-18.21Q3.40-17.94 3.12-16.85L3.12-16.85L3.12-16.85Q2.84-15.76 2.56-14.94L2.56-14.94L2.56-14.94Q2.27-14.12 2.04-14.12L2.04-14.12L2.04-14.12Q1.52-14.12 1.11-14.26L1.11-14.26L1.11-14.26Q0.71-14.40 0.50-14.59L0.50-14.59L0.50-14.59Q0.29-14.79 0.18-14.96L0.18-14.96L0.18-14.96Q0.08-15.13 0.08-15.23L0.08-15.23L0.08-15.23Q0.08-15.70 0.59-18.05L0.59-18.05L0.59-18.05Q1.09-20.40 1.29-20.59L1.29-20.59L1.29-20.59Q1.33-20.59 1.37-20.58L1.37-20.58L1.37-20.58Q1.41-20.58 1.45-20.58L1.45-20.58L1.45-20.58Q5.51-20.23 9.06-20.23L9.06-20.23L9.06-20.23Q12.61-20.23 16.67-20.58L16.67-20.58L16.67-20.58Q16.71-20.58 16.75-20.58L16.75-20.58L16.75-20.58Q16.79-20.59 16.83-20.59L16.83-20.59L16.83-20.59Q17.02-20.40 17.53-18.05L17.53-18.05L17.53-18.05Q18.03-15.70 18.03-15.23L18.03-15.23L18.03-15.23Q18.03-15.13 17.93-14.96L17.93-14.96L17.93-14.96Q17.83-14.79 17.62-14.59L17.62-14.59L17.62-14.59Q17.40-14.40 17.00-14.26L17.00-14.26L17.00-14.26Q16.60-14.12 16.08-14.12L16.08-14.12L16.08-14.12Q15.85-14.12 15.56-14.94L15.56-14.94L15.56-14.94Q15.27-15.76 14.99-16.85L14.99-16.85L14.99-16.85Q14.71-17.94 14.59-18.21L14.59-18.21L14.59-18.21Q14.05-18.21 12.83-18.20L12.83-18.20L12.83-18.20Q11.61-18.20 10.96-18.20L10.96-18.20L10.96-18.20Q10.75-18.20 10.69-18.07L10.69-18.07L10.69-18.07Q10.64-17.95 10.64-17.72L10.64-17.72L10.64-3.62L10.64-3.62Q10.64-3.42 10.66-3.30L10.66-3.30L10.66-3.30Q10.68-3.19 10.75-3.04L10.75-3.04L10.75-3.04Q10.83-2.88 11.02-2.81L11.02-2.81L11.02-2.81Q11.21-2.73 11.51-2.73L11.51-2.73L11.51-2.73Q12.14-2.73 12.59-2.57L12.59-2.57L12.59-2.57Q13.04-2.41 13.04-2.08L13.04-2.08L13.04-2.08Q13.04-0.26 12.59 0.15L12.59 0.15L12.59 0.15Q10.54 0 9.08 0L9.08 0L9.08 0Q7.64 0 5.54 0.15L5.54 0.15L5.54 0.15Q5.09-0.26 5.09-2.08L5.09-2.08L5.09-2.08Q5.09-2.41 5.54-2.57L5.54-2.57L5.54-2.57Q5.99-2.73 6.62-2.73L6.62-2.73L6.62-2.73Q7.15-2.73 7.31-2.96L7.31-2.96L7.31-2.96Q7.48-3.19 7.48-3.60ZM35.52-1.86L35.52-1.86L35.52-1.86Q34.52-0.81 33.00-0.22L33.00-0.22L33.00-0.22Q31.47 0.37 29.90 0.37L29.90 0.37L29.90 0.37Q27.95 0.37 26.67-0.67L26.67-0.67L26.67-0.67Q25.40-1.71 25.40-3.68L25.40-3.68L25.40-3.68Q25.40-5.78 27.44-6.85L27.44-6.85L27.44-6.85Q28.97-7.67 32.69-8.27L32.69-8.27L32.69-8.27Q33.39-8.39 34.96-8.63L34.96-8.63L34.96-8.63Q34.96-10.95 34.37-11.83L34.37-11.83L34.37-11.83Q33.78-12.70 32.12-12.70L32.12-12.70L32.12-12.70Q30.90-12.70 29.41-12.15L29.41-12.15L29.41-12.15Q27.92-11.61 27.03-10.64L27.03-10.64L27.03-10.64Q25.92-11.57 25.92-12.46L25.92-12.46L25.92-12.46Q25.92-13.22 26.97-13.82L26.97-13.82L26.97-13.82Q28.03-14.41 29.46-14.69L29.46-14.69L29.46-14.69Q30.88-14.97 32.32-14.97L32.32-14.97L32.32-14.97Q33.67-14.97 34.69-14.64L34.69-14.64L34.69-14.64Q35.71-14.30 36.49-13.54L36.49-13.54L36.49-13.54Q37.27-12.77 37.67-11.43L37.67-11.43L37.67-11.43Q38.08-10.09 38.08-8.18L38.08-8.18L38.08-3.80L38.08-3.80Q38.08-3.24 38.17-2.96L38.17-2.96L38.17-2.96Q38.25-2.68 38.36-2.62L38.36-2.62L38.36-2.62Q38.47-2.56 38.72-2.53L38.72-2.53L38.72-2.53Q39.14-2.49 39.35-2.45L39.35-2.45L39.35-2.45Q39.55-2.42 39.83-2.35L39.83-2.35L39.83-2.35Q40.10-2.28 40.22-2.17L40.22-2.17L40.22-2.17Q40.33-2.06 40.33-1.90L40.33-1.90L40.33-1.90Q40.33-0.29 39.88 0.11L39.88 0.11L39.88 0.11Q39.22 0 38.17 0L38.17 0L38.17 0Q37.21 0 36.39 0.10L36.39 0.10L36.39 0.10Q36.30 0.03 36.16-0.10L36.16-0.10L36.16-0.10Q36.01-0.22 35.77-0.72L35.77-0.72L35.77-0.72Q35.52-1.23 35.52-1.86ZM30.53-2.06L30.53-2.06L30.53-2.06Q31.77-2.06 33.22-2.75L33.22-2.75L33.22-2.75Q34.67-3.45 34.97-4.01L34.97-4.01L34.97-6.43L34.97-6.43Q31.24-5.76 29.93-5.22L29.93-5.22L29.93-5.22Q28.63-4.69 28.63-3.72L28.63-3.72L28.63-3.72Q28.63-2.06 30.53-2.06ZM61.22-11.32L61.22-11.32L61.22-11.32Q61.22-10.51 60.66-9.95L60.66-9.95L60.66-9.95Q60.09-9.39 58.87-9.39L58.87-9.39L58.87-9.39Q58.58-9.39 58.52-9.52L58.52-9.52L58.52-9.52Q58.46-9.65 58.41-10.21L58.41-10.21L58.20-12.17L58.20-12.17Q58.11-12.24 57.93-12.33L57.93-12.33L57.93-12.33Q57.76-12.41 57.17-12.57L57.17-12.57L57.17-12.57Q56.57-12.73 55.92-12.73L55.92-12.73L55.92-12.73Q53.84-12.73 52.56-11.12L52.56-11.12L52.56-11.12Q51.28-9.52 51.28-7.30L51.28-7.30L51.28-7.30Q51.28-4.91 52.53-3.57L52.53-3.57L52.53-3.57Q53.77-2.23 56.12-2.23L56.12-2.23L56.12-2.23Q57.22-2.23 58.51-2.69L58.51-2.69L58.51-2.69Q59.80-3.16 60.62-3.88L60.62-3.88L60.62-3.88Q61.40-2.97 61.40-2.13L61.40-2.13L61.40-2.13Q61.40-1.45 60.59-0.86L60.59-0.86L60.59-0.86Q59.79-0.27 58.52 0.05L58.52 0.05L58.52 0.05Q57.26 0.37 55.89 0.37L55.89 0.37L55.89 0.37Q54.30 0.37 52.90-0.13L52.90-0.13L52.90-0.13Q51.50-0.63 50.42-1.58L50.42-1.58L50.42-1.58Q49.34-2.53 48.71-4.04L48.71-4.04L48.71-4.04Q48.08-5.55 48.08-7.45L48.08-7.45L48.08-7.45Q48.08-9.21 48.75-10.67L48.75-10.67L48.75-10.67Q49.41-12.13 50.50-13.05L50.50-13.05L50.50-13.05Q51.60-13.97 52.96-14.47L52.96-14.47L52.96-14.47Q54.32-14.97 55.75-14.97L55.75-14.97L55.75-14.97Q57.22-14.97 58.30-14.68L58.30-14.68L58.30-14.68Q59.39-14.38 60.01-13.86L60.01-13.86L60.01-13.86Q60.63-13.34 60.93-12.71L60.93-12.71L60.93-12.71Q61.22-12.07 61.22-11.32ZM69.84-3.97L69.84-3.97L69.84-3.97Q69.18-5.47 69.18-7.31L69.18-7.31L69.18-7.31Q69.18-9.16 69.84-10.65L69.84-10.65L69.84-10.65Q70.49-12.14 71.59-13.06L71.59-13.06L71.59-13.06Q72.68-13.99 74.03-14.48L74.03-14.48L74.03-14.48Q75.39-14.97 76.86-14.97L76.86-14.97L76.86-14.97Q78.33-14.97 79.68-14.48L79.68-14.48L79.68-14.48Q81.03-13.99 82.12-13.06L82.12-13.06L82.12-13.06Q83.21-12.14 83.86-10.65L83.86-10.65L83.86-10.65Q84.52-9.16 84.52-7.31L84.52-7.31L84.52-7.31Q84.52-5.47 83.86-3.97L83.86-3.97L83.86-3.97Q83.21-2.47 82.12-1.54L82.12-1.54L82.12-1.54Q81.03-0.62 79.68-0.12L79.68-0.12L79.68-0.12Q78.33 0.37 76.86 0.37L76.86 0.37L76.86 0.37Q75.39 0.37 74.03-0.12L74.03-0.12L74.03-0.12Q72.68-0.62 71.59-1.54L71.59-1.54L71.59-1.54Q70.49-2.47 69.84-3.97ZM73.71-11.24L73.71-11.24L73.71-11.24Q72.38-9.83 72.38-7.31L72.38-7.31L72.38-7.31Q72.38-4.80 73.71-3.38L73.71-3.38L73.71-3.38Q75.03-1.97 76.84-1.97L76.84-1.97L76.84-1.97Q77.70-1.97 78.49-2.31L78.49-2.31L78.49-2.31Q79.28-2.65 79.92-3.30L79.92-3.30L79.92-3.30Q80.55-3.95 80.94-4.99L80.94-4.99L80.94-4.99Q81.32-6.03 81.32-7.31L81.32-7.31L81.32-7.31Q81.32-8.60 80.94-9.64L80.94-9.64L80.94-9.64Q80.55-10.68 79.92-11.32L79.92-11.32L79.92-11.32Q79.28-11.96 78.49-12.30L78.49-12.30L78.49-12.30Q77.70-12.65 76.84-12.65L76.84-12.65L76.84-12.65Q75.03-12.65 73.71-11.24ZM106.86 1.78L106.86 1.78L106.86 1.78Q106.86 2.99 106.45 3.89L106.45 3.89L106.45 3.89Q106.04 4.79 105.37 5.33L105.37 5.33L105.37 5.33Q104.70 5.87 103.67 6.19L103.67 6.19L103.67 6.19Q102.63 6.52 101.56 6.64L101.56 6.64L101.56 6.64Q100.49 6.75 99.09 6.75L99.09 6.75L99.09 6.75Q96.52 6.75 94.71 6.17L94.71 6.17L94.71 6.17Q92.90 5.59 92.90 4.62L92.90 4.62L92.90 4.62Q92.90 2.63 94.02 0.11L94.02 0.11L94.02 0.11Q92.45-0.42 92.45-2.11L92.45-2.11L92.45-2.11Q92.45-3.72 94.45-5.36L94.45-5.36L94.45-5.36Q93.43-6.11 92.92-7.15L92.92-7.15L92.92-7.15Q92.41-8.19 92.41-9.31L92.41-9.31L92.41-9.31Q92.41-10.38 92.89-11.40L92.89-11.40L92.89-11.40Q93.37-12.41 94.20-13.21L94.20-13.21L94.20-13.21Q95.03-14 96.26-14.49L96.26-14.49L96.26-14.49Q97.49-14.97 98.90-14.97L98.90-14.97L98.90-14.97Q100.09-14.97 100.91-14.77L100.91-14.77L100.91-14.77Q101.73-14.56 102.50-14.10L102.50-14.10L102.50-14.10Q102.51-14.11 102.79-14.41L102.79-14.41L102.79-14.41Q103.06-14.71 103.30-14.92L103.30-14.92L103.30-14.92Q103.54-15.12 103.93-15.39L103.93-15.39L103.93-15.39Q104.33-15.67 104.84-15.81L104.84-15.81L104.84-15.81Q105.36-15.96 105.92-15.96L105.92-15.96L105.92-15.96Q106.82-15.96 107.05-15.76L107.05-15.76L107.05-15.76Q107.28-15.56 107.28-14.97L107.28-14.97L107.28-14.74L107.28-14.74Q107.28-14.44 107.28-14.25L107.28-14.25L107.28-14.25Q107.27-14.05 107.20-13.88L107.20-13.88L107.20-13.88Q107.13-13.71 107.08-13.62L107.08-13.62L107.08-13.62Q107.02-13.52 106.85-13.44L106.85-13.44L106.85-13.44Q106.67-13.36 106.52-13.32L106.52-13.32L106.52-13.32Q106.38-13.29 106.03-13.26L106.03-13.26L106.03-13.26Q105.68-13.23 105.40-13.23L105.40-13.23L105.40-13.23Q105.12-13.23 104.58-13.23L104.58-13.23L104.58-13.23Q104.45-13.23 104.17-13.25L104.17-13.25L104.17-13.25Q103.89-13.26 103.74-13.26L103.74-13.26L103.74-13.26Q104.67-12.63 105.22-11.53L105.22-11.53L105.22-11.53Q105.77-10.42 105.77-9.12L105.77-9.12L105.77-9.12Q105.77-6.95 104.02-5.48L104.02-5.48L104.02-5.48Q102.28-4.02 99.22-4.02L99.22-4.02L99.22-4.02Q98.53-4.02 97.89-4.12L97.89-4.12L97.89-4.12Q97.25-4.22 96.71-4.37L96.71-4.37L96.71-4.37Q96.18-4.51 96.17-4.51L96.17-4.51L96.17-4.51Q95.72-3.61 95.72-2.72L95.72-2.72L95.72-2.72Q95.72-2.30 96.33-2.12L96.33-2.12L96.33-2.12Q96.95-1.94 97.93-1.93L97.93-1.93L97.93-1.93Q98.92-1.91 100.10-1.92L100.10-1.92L100.10-1.92Q101.28-1.93 102.47-1.79L102.47-1.79L102.47-1.79Q103.66-1.65 104.64-1.33L104.64-1.33L104.64-1.33Q105.63-1.00 106.24-0.21L106.24-0.21L106.24-0.21Q106.86 0.57 106.86 1.78ZM99.07-6.34L99.07-6.34L99.07-6.34Q100.13-6.34 100.91-6.60L100.91-6.60L100.91-6.60Q101.69-6.85 102.12-7.29L102.12-7.29L102.12-7.29Q102.54-7.74 102.74-8.25L102.74-8.25L102.74-8.25Q102.94-8.76 102.94-9.38L102.94-9.38L102.94-9.38Q102.94-10.73 101.97-11.70L101.97-11.70L101.97-11.70Q101.01-12.67 99.12-12.67L99.12-12.67L99.12-12.67Q97.25-12.67 96.30-11.72L96.30-11.72L96.30-11.72Q95.36-10.77 95.36-9.39L95.36-9.39L95.36-9.39Q95.36-8.11 96.26-7.23L96.26-7.23L96.26-7.23Q97.15-6.34 99.07-6.34ZM100.16 0.59L97.49 0.59L97.49 0.59Q96.02 0.49 95.43 0.34L95.43 0.34L95.43 0.34Q95.43 0.93 95.44 1.22L95.44 1.22L95.44 1.22Q95.44 1.52 95.48 2.00L95.48 2.00L95.48 2.00Q95.51 2.49 95.59 2.75L95.59 2.75L95.59 2.75Q95.66 3.01 95.80 3.30L95.80 3.30L95.80 3.30Q95.94 3.60 96.15 3.75L96.15 3.75L96.15 3.75Q96.37 3.90 96.67 3.95L96.67 3.95L96.67 3.95Q98.40 4.27 99.80 4.27L99.80 4.27L99.80 4.27Q100.95 4.27 101.73 4.11L101.73 4.11L101.73 4.11Q102.50 3.95 102.90 3.65L102.90 3.65L102.90 3.65Q103.30 3.35 103.46 2.99L103.46 2.99L103.46 2.99Q103.62 2.63 103.62 2.12L103.62 2.12L103.62 2.12Q103.62 0.59 100.16 0.59L100.16 0.59ZM125.11-1.86L125.11-1.86L125.11-1.86Q124.11-0.81 122.59-0.22L122.59-0.22L122.59-0.22Q121.06 0.37 119.49 0.37L119.49 0.37L119.49 0.37Q117.54 0.37 116.27-0.67L116.27-0.67L116.27-0.67Q114.99-1.71 114.99-3.68L114.99-3.68L114.99-3.68Q114.99-5.78 117.03-6.85L117.03-6.85L117.03-6.85Q118.56-7.67 122.28-8.27L122.28-8.27L122.28-8.27Q122.98-8.39 124.55-8.63L124.55-8.63L124.55-8.63Q124.55-10.95 123.96-11.83L123.96-11.83L123.96-11.83Q123.38-12.70 121.71-12.70L121.71-12.70L121.71-12.70Q120.49-12.70 119-12.15L119-12.15L119-12.15Q117.51-11.61 116.62-10.64L116.62-10.64L116.62-10.64Q115.51-11.57 115.51-12.46L115.51-12.46L115.51-12.46Q115.51-13.22 116.57-13.82L116.57-13.82L116.57-13.82Q117.62-14.41 119.05-14.69L119.05-14.69L119.05-14.69Q120.48-14.97 121.91-14.97L121.91-14.97L121.91-14.97Q123.27-14.97 124.28-14.64L124.28-14.64L124.28-14.64Q125.30-14.30 126.08-13.54L126.08-13.54L126.08-13.54Q126.86-12.77 127.26-11.43L127.26-11.43L127.26-11.43Q127.67-10.09 127.67-8.18L127.67-8.18L127.67-3.80L127.67-3.80Q127.67-3.24 127.76-2.96L127.76-2.96L127.76-2.96Q127.85-2.68 127.96-2.62L127.96-2.62L127.96-2.62Q128.06-2.56 128.31-2.53L128.31-2.53L128.31-2.53Q128.73-2.49 128.94-2.45L128.94-2.45L128.94-2.45Q129.14-2.42 129.42-2.35L129.42-2.35L129.42-2.35Q129.69-2.28 129.81-2.17L129.81-2.17L129.81-2.17Q129.92-2.06 129.92-1.90L129.92-1.90L129.92-1.90Q129.92-0.29 129.47 0.11L129.47 0.11L129.47 0.11Q128.82 0 127.76 0L127.76 0L127.76 0Q126.81 0 125.99 0.10L125.99 0.10L125.99 0.10Q125.89 0.03 125.75-0.10L125.75-0.10L125.75-0.10Q125.60-0.22 125.36-0.72L125.36-0.72L125.36-0.72Q125.11-1.23 125.11-1.86ZM120.12-2.06L120.12-2.06L120.12-2.06Q121.37-2.06 122.81-2.75L122.81-2.75L122.81-2.75Q124.26-3.45 124.56-4.01L124.56-4.01L124.56-6.43L124.56-6.43Q120.83-5.76 119.53-5.22L119.53-5.22L119.53-5.22Q118.22-4.69 118.22-3.72L118.22-3.72L118.22-3.72Q118.22-2.06 120.12-2.06ZM147.33-2.73L147.33-2.73L147.33-2.73Q147.74-1.96 147.74-1.27L147.74-1.27L147.74-1.27Q147.74-0.89 147.40-0.61L147.40-0.61L147.40-0.61Q147.07-0.33 146.54-0.18L146.54-0.18L146.54-0.18Q146.00-0.03 145.47 0.04L145.47 0.04L145.47 0.04Q144.94 0.11 144.43 0.11L144.43 0.11L144.43 0.11Q143.66 0.11 143.01-0.11L143.01-0.11L143.01-0.11Q142.35-0.33 141.76-0.83L141.76-0.83L141.76-0.83Q141.16-1.33 140.82-2.28L140.82-2.28L140.82-2.28Q140.48-3.23 140.48-4.54L140.48-4.54L140.48-12.47L139.89-12.47L139.89-12.47Q138.28-12.47 138.13-12.46L138.13-12.46L138.13-12.46Q137.68-12.62 137.68-13.51L137.68-13.51L137.68-13.51Q137.68-14.59 138.36-14.59L138.36-14.59L140.48-14.59L140.48-14.59Q140.53-15.03 140.58-15.73L140.58-15.73L140.58-15.73Q140.63-16.43 140.67-16.84L140.67-16.84L140.67-16.84Q140.71-17.25 140.80-17.81L140.80-17.81L140.80-17.81Q140.89-18.38 141.05-18.70L141.05-18.70L141.05-18.70Q141.20-19.02 141.45-19.33L141.45-19.33L141.45-19.33Q141.70-19.65 142.08-19.79L142.08-19.79L142.08-19.79Q142.47-19.93 143.01-19.93L143.01-19.93L143.01-19.93Q143.38-19.93 143.58-19.81L143.58-19.81L143.58-14.59L145.40-14.59L145.40-14.59Q147.03-14.59 147.11-14.66L147.11-14.66L147.11-14.66Q147.79-14.66 147.79-13.48L147.79-13.48L147.79-13.48Q147.79-12.59 147.34-12.43L147.34-12.43L147.34-12.43Q146.89-12.47 145.58-12.47L145.58-12.47L143.58-12.47L143.58-4.62L143.58-4.62Q143.58-2.35 145.06-2.35L145.06-2.35L145.06-2.35Q146.02-2.35 147.33-2.73ZM156.35-3.97L156.35-3.97L156.35-3.97Q155.70-5.47 155.70-7.31L155.70-7.31L155.70-7.31Q155.70-9.16 156.35-10.65L156.35-10.65L156.35-10.65Q157.01-12.14 158.10-13.06L158.10-13.06L158.10-13.06Q159.20-13.99 160.55-14.48L160.55-14.48L160.55-14.48Q161.90-14.97 163.38-14.97L163.38-14.97L163.38-14.97Q164.84-14.97 166.20-14.48L166.20-14.48L166.20-14.48Q167.55-13.99 168.64-13.06L168.64-13.06L168.64-13.06Q169.72-12.14 170.38-10.65L170.38-10.65L170.38-10.65Q171.04-9.16 171.04-7.31L171.04-7.31L171.04-7.31Q171.04-5.47 170.38-3.97L170.38-3.97L170.38-3.97Q169.72-2.47 168.64-1.54L168.64-1.54L168.64-1.54Q167.55-0.62 166.20-0.12L166.20-0.12L166.20-0.12Q164.84 0.37 163.38 0.37L163.38 0.37L163.38 0.37Q161.90 0.37 160.55-0.12L160.55-0.12L160.55-0.12Q159.20-0.62 158.10-1.54L158.10-1.54L158.10-1.54Q157.01-2.47 156.35-3.97ZM160.22-11.24L160.22-11.24L160.22-11.24Q158.89-9.83 158.89-7.31L158.89-7.31L158.89-7.31Q158.89-4.80 160.22-3.38L160.22-3.38L160.22-3.38Q161.55-1.97 163.35-1.97L163.35-1.97L163.35-1.97Q164.21-1.97 165.01-2.31L165.01-2.31L165.01-2.31Q165.80-2.65 166.43-3.30L166.43-3.30L166.43-3.30Q167.07-3.95 167.45-4.99L167.45-4.99L167.45-4.99Q167.84-6.03 167.84-7.31L167.84-7.31L167.84-7.31Q167.84-8.60 167.45-9.64L167.45-9.64L167.45-9.64Q167.07-10.68 166.43-11.32L166.43-11.32L166.43-11.32Q165.80-11.96 165.01-12.30L165.01-12.30L165.01-12.30Q164.21-12.65 163.35-12.65L163.35-12.65L163.35-12.65Q161.55-12.65 160.22-11.24ZM183.90-13.40L183.90-13.40L183.90-12.51L183.90-12.51Q184.52-13.49 185.73-14.23L185.73-14.23L185.73-14.23Q186.95-14.97 188.06-14.97L188.06-14.97L188.06-14.97Q188.78-14.97 189.44-14.73L189.44-14.73L189.44-14.73Q190.09-14.49 190.58-13.88L190.58-13.88L190.58-13.88Q191.06-13.26 191.06-12.37L191.06-12.37L191.06-12.37Q191.06-9.94 188.48-9.94L188.48-9.94L188.48-9.94Q188.43-9.94 188.37-9.95L188.37-9.95L188.37-9.95Q188.32-9.97 188.28-9.99L188.28-9.99L188.28-9.99Q188.25-10.02 188.22-10.05L188.22-10.05L188.22-10.05Q188.19-10.08 188.17-10.13L188.17-10.13L188.17-10.13Q188.15-10.19 188.14-10.23L188.14-10.23L188.14-10.23Q188.13-10.27 188.11-10.36L188.11-10.36L188.11-10.36Q188.10-10.45 188.09-10.50L188.09-10.50L188.09-10.50Q188.08-10.55 188.08-10.66L188.08-10.66L188.08-10.66Q188.07-10.76 188.06-10.83L188.06-10.83L187.89-12.25L187.89-12.25Q187.52-12.43 187.09-12.43L187.09-12.43L187.09-12.43Q186.29-12.43 185.49-11.85L185.49-11.85L185.49-11.85Q184.69-11.27 184.31-10.50L184.31-10.50L184.31-3.58L184.31-3.58Q184.31-3.38 184.33-3.26L184.33-3.26L184.33-3.26Q184.35-3.14 184.43-2.99L184.43-2.99L184.43-2.99Q184.50-2.84 184.69-2.77L184.69-2.77L184.69-2.77Q184.88-2.69 185.19-2.69L185.19-2.69L185.19-2.69Q185.71-2.69 186.07-2.53L186.07-2.53L186.07-2.53Q186.44-2.37 186.44-2.04L186.44-2.04L186.44-2.04Q186.44-1.38 186.22-0.74L186.22-0.74L186.22-0.74Q186.01-0.10 185.58 0.11L185.58 0.11L185.58 0.11Q184.63 0 182.78 0L182.78 0L182.78 0Q180.93 0 179.95 0.11L179.95 0.11L179.95 0.11Q179.50-0.10 179.29-0.73L179.29-0.73L179.29-0.73Q179.09-1.37 179.09-2.04L179.09-2.04L179.09-2.04Q179.09-2.37 179.46-2.53L179.46-2.53L179.46-2.53Q179.83-2.69 180.35-2.69L180.35-2.69L180.35-2.69Q180.88-2.69 181.04-2.92L181.04-2.92L181.04-2.92Q181.21-3.14 181.21-3.55L181.21-3.55L181.21-10.75L181.21-10.75Q181.21-11.47 180.79-11.77L180.79-11.77L180.79-11.77Q180.37-12.07 179.18-12.13L179.18-12.13L179.18-12.13Q179.01-12.17 178.96-12.30L178.96-12.30L178.96-12.30Q178.91-12.44 178.91-12.89L178.91-12.89L178.91-12.89Q178.91-13.59 179.06-14.12L179.06-14.12L179.06-14.12Q179.21-14.66 179.36-14.74L179.36-14.74L179.36-14.74Q180.33-14.59 181.26-14.59L181.26-14.59L181.26-14.59Q181.84-14.59 182.47-14.66L182.47-14.66L182.47-14.66Q183.11-14.74 183.15-14.74L183.15-14.74L183.15-14.74Q183.63-14.74 183.76-14.50L183.76-14.50L183.76-14.50Q183.90-14.26 183.90-13.40Z" fill="none" stroke="#53697e" stroke-width="2.1"></path></g></g></g><style>text {
  font-size: 64px;
  font-family: Arial Black;
  dominant-baseline: central;
  text-anchor: middle;
}</style></svg>